<?xml version="1.0" encoding="UTF-8"?>
<svg version="1.1" viewBox="0 0 39 37" 
  xmlns="http://www.w3.org/2000/svg" 
  xmlns:xlink="http://www.w3.org/1999/xlink">
  <defs>
    <polygon id="a" points="31.482 24.626 31.482 0.50137 0.47627 0.50137 0.47627 24.626"/>
  </defs>
  <g fill="none" fill-rule="evenodd">
    <g transform="translate(-1432 -977)">
      <g transform="translate(1415.7 959.46)">
        <g transform="translate(17 17)">
          <g transform="translate(6.3333 .074618)">
            <mask id="b" fill="white">
              <use xlink:href="#a"/>
            </mask>
            <path d="m30.594 4.7735c-0.31379-1.9432-1.486-3.1137-3.3739-3.3814-0.045485-0.0092121-4.6441-0.8907-11.858-0.8907-7.2142 0-11.813 0.88148-11.843 0.88839-1.4768 0.20958-2.5068 0.96727-3.0417 2.1919 2.1666-0.24642 5.3643-0.50264 9.3117-0.50264 6.9937 0 11.647 0.80376 12.33 0.92927 3.0792 0.46291 5.2198 2.599 5.7386 5.7282 0.22339 1.0202 0.93158 4.6066 0.93158 8.8874 0 2.2921-0.20612 4.3953-0.42836 6.0017 1.2212-0.51588 1.9887-1.5488 2.2299-3.0435 0.0086364-0.037424 0.893-3.8138 0.893-8.4147 0-4.6009-0.88436-8.3773-0.88897-8.394" fill="#fff" mask="url(#b)"/>
          </g>
          <g transform="translate(0 5.8322)" fill="#fff">
            <path d="m31.354 4.4725c-0.31379-1.9432-1.486-3.1137-3.3739-3.3814-0.045485-0.0092121-4.6441-0.8907-11.858-0.8907-7.2142 0-11.813 0.88148-11.843 0.88839-1.9029 0.27003-3.0745 1.4405-3.3843 3.363-0.0092121 0.037424-0.89358 3.8138-0.89358 8.4147 0 4.6009 0.88436 8.3773 0.88897 8.394 0.31436 1.9438 1.486 3.1137 3.3739 3.3814 0.036848 0.0074848 3.0193 0.57806 7.9334 0.80145l2.9277 5.0718c0.20555 0.35639 0.58612 0.57576 0.99721 0.57576s0.79167-0.21936 0.99721-0.57576l2.9283-5.0713c4.9129-0.22397 7.8931-0.79397 7.9178-0.79915 1.9029-0.27061 3.0751-1.4405 3.3849-3.3636 0.0086364-0.037424 0.893-3.8138 0.893-8.4147 0-4.6009-0.88436-8.3773-0.88897-8.394"/>
          </g>
        </g>
      </g>
    </g>
  </g>
</svg>
